<svg width="32" height="32" viewBox="0 0 32 32" fill="none" xmlns="http://www.w3.org/2000/svg">
<g clip-path="url(#clip0_28_25)">
<path d="M15.9225 3C8.78559 3 3 8.78581 3 15.923C3 23.0602 8.78559 28.846 15.9225 28.846C18.9377 28.846 21.7105 27.8134 23.9086 26.0842L32.3735 34.5493C32.5163 34.6922 32.6859 34.8056 32.8726 34.8829C33.0593 34.9602 33.2594 35 33.4614 35C33.6635 35 33.8635 34.9602 34.0502 34.8829C34.2369 34.8056 34.4065 34.6922 34.5494 34.5493C34.6922 34.4065 34.8056 34.2368 34.8829 34.0502C34.9602 33.8635 35 33.6634 35 33.4613C35 33.2593 34.9602 33.0592 34.8829 32.8725C34.8056 32.6859 34.6922 32.5162 34.5494 32.3734L26.0833 23.9082C27.8764 21.6332 28.8494 18.8197 28.845 15.923C28.845 8.78581 23.0594 3 15.9225 3ZM6.07679 15.923C6.07679 13.3116 7.1141 10.8073 8.96053 8.96076C10.807 7.11426 13.3113 6.0769 15.9225 6.0769C18.5337 6.0769 21.038 7.11426 22.8845 8.96076C24.7309 10.8073 25.7682 13.3116 25.7682 15.923C25.7682 18.5343 24.7309 21.0387 22.8845 22.8852C21.038 24.7317 18.5337 25.7691 15.9225 25.7691C13.3113 25.7691 10.807 24.7317 8.96053 22.8852C7.1141 21.0387 6.07679 18.5343 6.07679 15.923Z" fill="#723FE0"/>
</g>
<defs>
<clipPath id="clip0_28_25">
<rect width="32" height="32" fill="white"/>
</clipPath>
</defs>
</svg>
